<svg height="512" viewBox="0 0 256 256" width="512" xmlns="http://www.w3.org/2000/svg"><path d="m88.607 162.314h5.557a.6.6 0 0 0 .6-.6v-67.656a.6.6 0 0 0 -.6-.6h-.927a.588.588 0 0 0 -.211.038l-22.965 8.52a.606.606 0 0 0 -.394.566v5.187a.611.611 0 0 0 .26.5.6.6 0 0 0 .557.068l16.2-6.013a.956.956 0 0 1 .341-.062.982.982 0 0 1 .982.982v58.471a.606.606 0 0 0 .6.599z" fill="#ed9abc"/><path d="m111.114 158.047c4 3.446 9.391 5.194 16.024 5.194 6.568 0 11.936-1.757 15.954-5.221 4.04-3.484 6.089-8.256 6.089-14.184a16.77 16.77 0 0 0 -3.65-10.657 19.757 19.757 0 0 0 -6.473-5.292.982.982 0 0 1 -.058-1.713 18.132 18.132 0 0 0 5.247-4.786 16.052 16.052 0 0 0 3.175-9.735c0-5.675-1.9-10.3-5.636-13.734s-8.687-5.16-14.741-5.16-11 1.721-14.694 5.114c-3.71 3.407-5.591 8.043-5.591 13.78a16.373 16.373 0 0 0 3.077 9.726 17.446 17.446 0 0 0 5.163 4.793.983.983 0 0 1 -.057 1.711 18.661 18.661 0 0 0 -6.395 5.356 17.242 17.242 0 0 0 -3.5 10.6c-.001 5.961 2.04 10.739 6.066 14.208zm2.412-46.44a12.221 12.221 0 0 1 3.726-9.357 15.028 15.028 0 0 1 19.584.139 12.182 12.182 0 0 1 3.82 9.219 11.632 11.632 0 0 1 -3.763 9.07 13.793 13.793 0 0 1 -9.8 3.475c-4.11 0-7.332-1.129-9.848-3.45a11.677 11.677 0 0 1 -3.719-9.096zm2.485 22.305c2.874-2.574 6.483-3.826 11.034-3.826a15.767 15.767 0 0 1 11.08 3.9 12.642 12.642 0 0 1 4.29 9.9 12.254 12.254 0 0 1 -4.146 9.824c-2.773 2.42-6.518 3.647-11.131 3.647-4.734 0-8.526-1.234-11.268-3.668a12.341 12.341 0 0 1 -4.1-9.8 12.646 12.646 0 0 1 4.241-9.977z" fill="#ed9abc"/><g fill="#846f75"><path d="m128 38a90 90 0 1 0 90 90 90.1 90.1 0 0 0 -90-90zm0 175a85 85 0 1 1 85-85 85.1 85.1 0 0 1 -85 85z"/><path d="m128 48a80 80 0 1 0 80 80 80.091 80.091 0 0 0 -80-80zm0 155a75 75 0 1 1 75-75 75.085 75.085 0 0 1 -75 75z"/><path d="m186.333 125.314h-10.02v-10.014a2.5 2.5 0 0 0 -5 0v10.019h-10.019a2.5 2.5 0 0 0 0 5h10.019v10.02a2.5 2.5 0 0 0 5 0v-10.02h10.02a2.5 2.5 0 0 0 0-5z"/></g></svg>